<svg xmlns="http://www.w3.org/2000/svg" width="32" height="32" viewBox="0 0 32 32">
  <!-- Dark rounded background -->
  <rect width="32" height="32" rx="8" fill="#0f172a"/>
  <!-- UtensilsCrossed icon (lucide), scaled from 24x24 to 20x20, centered at (6,6) -->
  <g transform="translate(6,6) scale(0.833)" stroke="white" stroke-width="2" stroke-linecap="round" stroke-linejoin="round" fill="none">
    <path d="m16 2-2.3 2.3a3 3 0 0 0 0 4.2l1.8 1.8a3 3 0 0 0 4.2 0L22 8"/>
    <path d="M15 15 3.3 3.3a4.2 4.2 0 0 0 0 6l7.3 7.3c.7.7 2 .7 2.8 0L15 15Zm0 0 7 7"/>
    <path d="m2 22 7.9-1.7"/>
    <path d="M9.3 9.3c-.4-.4-1-.4-1.4 0L3.3 14l1.4 1.4 1.4-1.4 2.3 2.3-1.4 1.4 1.4 1.4.9-1"/>
  </g>
</svg>
